<svg id="Layer_1" enable-background="new 0 0 512 512" height="512" viewBox="0 0 512 512" width="512" xmlns="http://www.w3.org/2000/svg"><path d="m511.8 224.373-11.914-154.947c-2.371-30.839-26.474-54.941-57.312-57.312l-154.947-11.915c-18.682-1.435-35.557 4.808-48.804 18.056l-221.287 221.287c-11.308 11.308-17.536 26.388-17.536 42.464 0 16.075 6.228 31.156 17.536 42.464l169.994 169.994c11.708 11.709 27.083 17.562 42.464 17.562 15.376 0 30.758-5.855 42.464-17.562l221.288-221.287c13.248-13.249 19.491-30.125 18.054-48.804zm-40.682 26.177-221.287 221.287c-10.939 10.938-28.736 10.936-39.673 0l-169.994-169.994c-5.265-5.265-8.164-12.31-8.164-19.837 0-7.528 2.899-14.573 8.163-19.837l221.288-221.287c5.962-5.963 12.846-8.884 20.973-8.884.901 0 1.818.035 2.75.107l154.947 11.915c14.99 1.151 26.707 12.868 27.859 27.858l11.915 154.948c.718 9.34-2.153 17.1-8.777 23.724zm-96.374-174.088c-33.522 0-60.794 27.272-60.794 60.794s27.272 60.794 60.794 60.795c33.522-.001 60.794-27.273 60.794-60.795s-27.272-60.794-60.794-60.794zm0 89.589c-15.877-.001-28.794-12.918-28.794-28.795s12.917-28.794 28.794-28.794 28.794 12.917 28.794 28.794-12.917 28.794-28.794 28.795z"/></svg>